<?xml version="1.0" encoding="utf-8"?>
<!-- Generator: Adobe Illustrator 24.0.0, SVG Export Plug-In . SVG Version: 6.00 Build 0)  -->
<svg version="1.1" id="Capa_1" xmlns="http://www.w3.org/2000/svg" xmlns:xlink="http://www.w3.org/1999/xlink" x="0px" y="0px"
	 viewBox="0 0 880 550" style="enable-background:new 0 0 500 612;" xml:space="preserve">
<style type="text/css">
	.st0{fill:#0E205E;}
</style>
<g>
	<g>
		<g>
			<path class="st0" d="M400.57,364.49h0.14l10.81-37.77h6.27l11.24,37.77h0.14l10.67-37.05h11.1l-18.38,55.43h-7.79l-10.81-35.54
				h-0.14l-10.23,35.54h-7.79l-17.3-55.43h11.1L400.57,364.49z"/>
			<path class="st0" d="M468.04,336.67v11.96h16.87v9.23h-16.87v14.71h17.52v9.23h-28.11v-54.35h28.11v9.23H468.04z"/>
			<path class="st0" d="M496.23,327.45h13.19c10.09,0,16.29,3.96,16.29,14.78c0,3.89-1.37,8.36-4.76,10.52
				c6.42,1.15,9.3,7.64,9.3,13.62c0,10.67-7.5,15.42-17.37,15.42h-16.65V327.45z M506.82,350.08h1.3c5.19,0,7.71-1.51,7.71-7.14
				c0-5.55-3.17-6.99-7.64-6.99h-1.37V350.08z M506.82,373.29h2.24c5.69,0,10.6-0.72,10.6-7.79s-5.77-7.35-11.1-7.35h-1.73V373.29z"
				/>
			<path class="st0" d="M589.72,339.41c-2.02-2.74-4.61-4.47-8.15-4.47c-3.39,0-6.63,2.6-6.63,6.13c0,9.16,21.55,5.34,21.55,23.57
				c0,10.89-6.78,18.6-17.88,18.6c-7.5,0-12.98-4.32-16.72-10.6l6.85-6.7c1.44,4.18,5.26,7.93,9.8,7.93c4.32,0,6.99-3.67,6.99-7.86
				c0-5.62-5.19-7.21-9.44-8.86c-6.99-2.88-12.11-6.42-12.11-14.85c0-9.01,6.71-16.29,15.86-16.29c4.83,0,11.53,2.38,14.85,6.06
				L589.72,339.41z"/>
			<path class="st0" d="M623.31,381.79h-10.6v-45.12h-10.96v-9.23h32.51v9.23h-10.96V381.79z"/>
			<path class="st0" d="M647.1,370.33l-4.47,11.46h-11.17L652.66,326h8.22l20.62,55.79h-11.32l-4.18-11.46H647.1z M656.26,341.93
				h-0.14l-5.98,19.75h12.9L656.26,341.93z"/>
			<path class="st0" d="M698.93,336.67v11.96h15.35v9.23h-15.35v23.93h-10.6v-54.35h26.96v9.23H698.93z"/>
			<path class="st0" d="M735.91,336.67v11.96h15.35v9.23h-15.35v23.93h-10.6v-54.35h26.96v9.23H735.91z"/>
		</g>
		<g>
			<path class="st0" d="M441.68,255.45h-0.21l-17.83,49.83h-5.32l-17.2-49.83h-0.21l-6.98,48.78h-15.43l13.24-80.68h10.84
				l19.39,51.81l18.55-51.81h11.05l11.78,80.68h-15.43L441.68,255.45z"/>
			<path class="st0" d="M486.18,287.66l-6.46,16.57h-16.16l30.65-80.68h11.88l29.81,80.68h-16.36l-6.04-16.57H486.18z
				 M499.42,246.59h-0.21l-8.65,28.56h18.66L499.42,246.59z"/>
			<path class="st0" d="M540.58,225.64h21.89c22.72,0,37.94,16.99,37.94,39.4c0,22.1-15.63,39.19-38.04,39.19h-21.79V225.64z
				 M555.91,290.89h2.5c18.87,0,26.16-10.42,26.16-25.96c0-17.1-8.76-25.96-26.16-25.96h-2.5V290.89z"/>
			<path class="st0" d="M666.6,255.45h-0.21l-17.83,49.83h-5.32l-17.2-49.83h-0.21l-6.98,48.78h-15.43l13.24-80.68h10.84
				l19.39,51.81l18.55-51.81h11.05l11.78,80.68h-15.43L666.6,255.45z"/>
			<path class="st0" d="M687.76,225.64h17.83l13.76,27.31l15.01-27.31h17.93l-24.81,42.53v36.07h-15.32v-36.07L687.76,225.64z"/>
		</g>
	</g>
	<g>
		<g>
			<path class="st0" d="M195.26,488.37c-0.12,0-0.24-0.04-0.34-0.11L47.49,378.48c-0.14-0.11-0.23-0.27-0.23-0.45v-146.8
				c0-0.18,0.08-0.34,0.22-0.45L194.29,119c0.2-0.15,0.48-0.15,0.68,0l146.8,111.91c0.14,0.11,0.22,0.27,0.22,0.45v144.9
				c0,0.18-0.08,0.34-0.22,0.45L195.6,488.26C195.5,488.33,195.38,488.37,195.26,488.37z M48.39,377.74L195.25,487.1l145.61-111.13
				V231.63L194.63,120.16L48.39,231.51V377.74z"/>
			<path class="st0" d="M193.22,247.66L47.77,231.79c-0.31-0.03-0.53-0.31-0.5-0.62c0.03-0.31,0.26-0.53,0.62-0.5l145.33,15.87
				l148.14-15.75c0.33-0.02,0.59,0.19,0.62,0.5c0.03,0.31-0.19,0.59-0.5,0.62L193.22,247.66z"/>
			<path class="st0" d="M195.26,488.37c-0.09,0-0.19-0.02-0.27-0.07l0,0l0,0c0,0,0,0,0,0v0l0,0c0,0,0,0,0,0l0,0c0,0,0,0,0,0l0,0
				c0,0,0,0,0,0l0,0c0,0,0,0,0,0s0,0,0,0c-0.08-0.05-0.15-0.13-0.2-0.21l-63.2-109.99l-83.73,0.51c-0.2-0.01-0.39-0.1-0.49-0.28
				c-0.1-0.17-0.1-0.39,0-0.56l41.76-73.56l-41.76-72.68c-0.14-0.24-0.08-0.56,0.15-0.73c0.22-0.17,0.54-0.15,0.74,0.05l52.87,52.23
				l93.04-163.89c0.06-0.1,0.14-0.18,0.24-0.22c0,0,0,0,0,0c0,0,0,0,0,0c0.03-0.02,0.07-0.03,0.11-0.04
				c0.04-0.01,0.07-0.01,0.11-0.02c0.1-0.01,0.19,0.01,0.28,0.05c0.03,0.02,0.06,0.03,0.09,0.06c0.07,0.05,0.12,0.11,0.16,0.18
				L288.6,282.7l52.43-51.75c0.2-0.2,0.52-0.22,0.74-0.05c0.22,0.17,0.29,0.48,0.15,0.73l-41.2,72.28l41.2,72.07
				c0.1,0.17,0.1,0.39,0,0.56c-0.1,0.17-0.28,0.28-0.48,0.28l-82.55,0.5l-63.14,110.77c0,0.01-0.01,0.02-0.01,0.02h0c0,0,0,0,0,0
				c-0.06,0.08-0.13,0.15-0.21,0.19c0,0,0,0,0,0c-0.04,0.02-0.07,0.04-0.12,0.05c-0.03,0.01-0.07,0.01-0.1,0.02
				C195.29,488.37,195.27,488.37,195.26,488.37z M132.86,378.08l61.83,107.61l-0.18-107.98L132.86,378.08z M195.63,377.7
				l0.18,107.99l61.76-108.36L195.63,377.7z M89.75,305.32L48.8,377.46l82.12-0.5L89.75,305.32z M90.4,304.18l41.81,72.77
				l61.95-0.37l-92.81-91.68L90.4,304.18z M195.63,376.06v0.51l62.59-0.38l41.2-72.28l-11.07-19.37L195.63,376.06z M300.07,305.05
				l-40.55,71.14l80.93-0.49L300.07,305.05z M101.93,283.88l92.57,91.45l-0.43-253.76L101.93,283.88z M195.2,121.58l0.43,252.9
				l92.14-90.95L195.2,121.58z M50.39,234.55l39.36,68.5l10.77-18.98L50.39,234.55z M289.18,283.72l10.89,19.05l38.84-68.14
				L289.18,283.72z"/>
			<path class="st0" d="M47.83,378.59c-0.15,0-0.31-0.06-0.42-0.19c-0.21-0.23-0.19-0.59,0.04-0.8l145.33-130.93
				c0.21-0.19,0.53-0.19,0.75-0.01L341.8,375.83c0.24,0.2,0.26,0.56,0.06,0.8c-0.21,0.24-0.56,0.26-0.8,0.06L193.17,247.85
				L48.21,378.45C48.1,378.54,47.96,378.59,47.83,378.59z"/>
			<path class="st0" d="M193.16,247.66C193.16,247.66,193.16,247.66,193.16,247.66c-0.17,0-0.32-0.07-0.43-0.2l-65.05-75.94v66.84
				c0,0.31-0.25,0.56-0.56,0.56s-0.56-0.25-0.56-0.56V170c0-0.24,0.15-0.45,0.37-0.53c0.22-0.08,0.47-0.02,0.62,0.16l65.63,76.61
				l68.82-75.51c0.15-0.17,0.39-0.23,0.62-0.15c0.22,0.08,0.36,0.29,0.36,0.52l0.99,68.63c0,0.31-0.24,0.57-0.56,0.57
				c0,0-0.01,0-0.01,0c-0.31,0-0.56-0.25-0.56-0.56l-0.97-67.2l-68.29,74.93C193.47,247.6,193.32,247.66,193.16,247.66z"/>
		</g>
		<g>
			<path class="st0" d="M193.16,254.99c-0.04,0-0.08,0-0.12,0c-2.26-0.03-4.4-1.04-5.87-2.76l-52.15-60.88v47.01
				c0,4.36-3.54,7.89-7.89,7.89s-7.89-3.53-7.89-7.89V170c0-3.3,2.06-6.26,5.16-7.4c3.1-1.14,6.58-0.24,8.73,2.27l60.23,70.31
				l63.23-69.38c2.2-2.41,5.65-3.23,8.7-2.04c3.04,1.19,5.04,4.12,5.03,7.39l-0.27,68.46c-0.02,4.35-3.55,7.86-7.89,7.86
				c-0.01,0-0.02,0-0.03,0c-4.36-0.02-7.88-3.57-7.86-7.93l0.19-47.96L199,252.42C197.5,254.06,195.38,254.99,193.16,254.99z"/>
			<path class="st0" d="M193.16,317.25c-4.36,0-7.89-3.53-7.89-7.89V247.1c0-4.36,3.54-7.89,7.89-7.89s7.89,3.53,7.89,7.89v62.25
				C201.06,313.71,197.52,317.25,193.16,317.25z"/>
			<path class="st0" d="M340.48,385.92c-4.36,0-7.89-3.53-7.89-7.89V249.46L199.32,382.72c-2.96,2.96-8.2,2.96-11.16,0L55.73,250.29
				v127.74c0,4.36-3.54,7.89-7.89,7.89s-7.89-3.53-7.89-7.89v-146.8c0-3.19,1.92-6.07,4.87-7.29c2.96-1.23,6.35-0.54,8.6,1.71
				l140.33,140.33L334.9,224.82c2.26-2.26,5.65-2.94,8.6-1.71c2.95,1.22,4.87,4.1,4.87,7.29v147.62
				C348.37,382.39,344.84,385.92,340.48,385.92z"/>
			<path class="st0" d="M194.01,493.52c-2.73,0-5.39-1.42-6.85-3.96l-60.51-105.31L48,385.92c-4.43,0.12-7.97-3.37-8.06-7.72
				c-0.09-4.36,3.37-7.97,7.73-8.06l83.33-1.77c2.95-0.01,5.58,1.46,7.01,3.96l62.84,109.37c2.17,3.78,0.87,8.61-2.91,10.78
				C196.7,493.18,195.35,493.52,194.01,493.52z"/>
			<path class="st0" d="M194.01,493.52c-1.89,0-3.77-0.68-5.26-2.01c-2.78-2.49-3.45-6.58-1.59-9.82l146.48-255.22
				c2.17-3.78,7-5.09,10.78-2.92c3.78,2.17,5.09,7,2.92,10.78L219.46,457.13l116.34-85.46c3.51-2.58,8.46-1.83,11.04,1.69
				c2.58,3.51,1.83,8.46-1.69,11.04l-146.48,107.6C197.28,493.01,195.64,493.52,194.01,493.52z"/>
		</g>
	</g>
</g>
</svg>
