<?xml version="1.0" encoding="utf-8"?>
<!-- Generator: Adobe Illustrator 24.0.0, SVG Export Plug-In . SVG Version: 6.00 Build 0)  -->
<svg version="1.1" id="Capa_1" xmlns="http://www.w3.org/2000/svg" xmlns:xlink="http://www.w3.org/1999/xlink" x="0px" y="0px"
	 viewBox="0 0 792 612" style="enable-background:new 0 0 792 612;" xml:space="preserve">
<style type="text/css">
	.st0{fill:#FFFFFF;}
</style>
<g>
	<g>
		<path class="st0" d="M397.45,564.36c-0.17,0-0.34-0.05-0.48-0.16L188.05,408.63c-0.2-0.15-0.32-0.39-0.32-0.64V199.96
			c0-0.25,0.12-0.48,0.32-0.64L396.08,40.91c0.29-0.22,0.68-0.22,0.97,0L605.08,199.5c0.2,0.15,0.32,0.39,0.32,0.64v205.34
			c0,0.25-0.12,0.48-0.32,0.64L397.93,564.2C397.79,564.31,397.62,564.36,397.45,564.36z M189.32,407.59l208.12,154.97
			l206.35-157.48V200.53L396.56,42.55l-207.24,157.8V407.59z"/>
		<path class="st0" d="M394.56,223.24l-206.13-22.49c-0.44-0.05-0.76-0.44-0.71-0.88c0.05-0.44,0.37-0.75,0.88-0.71l205.95,22.49
			l209.94-22.32c0.46-0.03,0.83,0.27,0.88,0.71c0.04,0.44-0.27,0.83-0.71,0.88L394.56,223.24z"/>
		<path class="st0" d="M397.45,564.36c-0.13,0-0.27-0.03-0.39-0.1l0,0l-0.01,0c0,0,0,0,0,0v0l0,0c0,0,0,0-0.01,0l0,0c0,0,0,0-0.01,0
			l0,0c0,0,0,0-0.01,0l0,0c0,0,0,0,0,0s0,0,0,0c-0.12-0.07-0.22-0.18-0.28-0.29l-89.56-155.88l-118.65,0.72
			c-0.28-0.01-0.55-0.15-0.7-0.39c-0.14-0.25-0.15-0.55-0.01-0.8l59.18-104.24l-59.18-102.99c-0.2-0.35-0.11-0.79,0.21-1.03
			c0.31-0.25,0.76-0.22,1.05,0.07l74.92,74.02L395.87,41.15c0.08-0.14,0.2-0.25,0.34-0.32c0,0,0,0,0,0c0,0,0,0,0,0
			c0.05-0.02,0.1-0.04,0.15-0.06c0.05-0.01,0.1-0.02,0.15-0.02c0.14-0.01,0.27,0.01,0.4,0.08c0.05,0.02,0.09,0.05,0.13,0.08
			c0.1,0.07,0.17,0.16,0.22,0.26L529.73,272.9l74.3-73.34c0.29-0.28,0.73-0.31,1.05-0.07c0.32,0.24,0.41,0.68,0.21,1.03
			l-58.38,102.42l58.38,102.13c0.14,0.25,0.14,0.55,0,0.8c-0.14,0.25-0.4,0.4-0.69,0.4l-116.98,0.71l-89.47,156.98
			c0,0.01-0.01,0.02-0.02,0.03h0c0,0,0,0,0,0c-0.08,0.12-0.18,0.21-0.29,0.27c-0.01,0-0.01,0-0.01,0c-0.05,0.03-0.11,0.05-0.17,0.07
			c-0.05,0.01-0.1,0.02-0.14,0.02C397.49,564.36,397.47,564.36,397.45,564.36z M309.02,408.06l87.62,152.5l-0.26-153.03
			L309.02,408.06z M397.98,407.52l0.26,153.03l87.53-153.56L397.98,407.52z M247.94,304.96L189.9,407.18l116.37-0.7L247.94,304.96z
			 M248.85,303.35l59.25,103.12l87.79-0.53L264.37,276.01L248.85,303.35z M397.98,405.2v0.73l88.7-0.54l58.39-102.44l-15.69-27.45
			L397.98,405.2z M545.99,304.56l-57.46,100.81l114.69-0.69L545.99,304.56z M265.19,274.57l131.19,129.6l-0.61-359.61L265.19,274.57
			z M397.37,44.56l0.61,358.39l130.58-128.89L397.37,44.56z M192.15,204.66l55.78,97.07l15.27-26.89L192.15,204.66z M530.55,274.34
			l15.43,27l55.04-96.57L530.55,274.34z"/>
		<path class="st0" d="M188.53,408.79c-0.22,0-0.44-0.09-0.59-0.26c-0.3-0.33-0.27-0.83,0.06-1.13l205.95-185.54
			c0.3-0.27,0.76-0.27,1.06-0.01l210.11,183.03c0.33,0.29,0.37,0.79,0.08,1.13c-0.29,0.34-0.8,0.37-1.13,0.08L394.49,223.51
			L189.06,408.58C188.91,408.72,188.72,408.79,188.53,408.79z"/>
		<path class="st0" d="M394.48,223.25c0,0-0.01,0-0.01,0c-0.23,0-0.45-0.1-0.59-0.28l-92.19-107.62v94.72c0,0.44-0.36,0.8-0.8,0.8
			s-0.8-0.36-0.8-0.8v-96.88c0-0.33,0.21-0.63,0.52-0.75c0.32-0.12,0.67-0.02,0.88,0.23l93,108.57l97.52-107.01
			c0.22-0.24,0.56-0.33,0.87-0.21c0.31,0.12,0.51,0.41,0.52,0.74l1.4,97.25c0.01,0.44-0.35,0.8-0.79,0.81c-0.01,0-0.01,0-0.01,0
			c-0.44,0-0.79-0.35-0.8-0.79l-1.37-95.24l-96.77,106.19C394.92,223.15,394.7,223.25,394.48,223.25z"/>
	</g>
	<g>
		<path class="st0" d="M394.48,233.63c-0.06,0-0.12,0-0.17,0c-3.21-0.05-6.24-1.47-8.33-3.91l-73.91-86.28v66.62
			c0,6.18-5.01,11.19-11.19,11.19c-6.18,0-11.19-5.01-11.19-11.19v-96.88c0-4.68,2.92-8.87,7.31-10.49
			c4.4-1.62,9.33-0.34,12.38,3.22l85.35,99.64l89.6-98.32c3.12-3.42,8.01-4.57,12.33-2.89c4.31,1.68,7.15,5.84,7.13,10.47
			l-0.38,97.02c-0.02,6.16-5.03,11.14-11.19,11.14c-0.02,0-0.03,0-0.04,0c-6.18-0.02-11.17-5.05-11.14-11.23l0.27-67.97l-78.56,86.2
			C400.63,232.31,397.62,233.63,394.48,233.63z"/>
		<path class="st0" d="M394.48,321.86c-6.18,0-11.19-5.01-11.19-11.19v-88.22c0-6.18,5.01-11.19,11.19-11.19
			c6.18,0,11.19,5.01,11.19,11.19v88.22C405.67,316.85,400.66,321.86,394.48,321.86z"/>
		<path class="st0" d="M603.25,419.18c-6.18,0-11.19-5.01-11.19-11.19V225.8L403.21,414.65c-4.2,4.2-11.63,4.2-15.82,0
			L199.71,226.97v181.02c0,6.18-5.01,11.19-11.19,11.19s-11.19-5.01-11.19-11.19V199.96c0-4.52,2.73-8.6,6.91-10.34
			c4.19-1.74,9-0.77,12.19,2.42L395.3,390.91l200.04-200.04c3.2-3.2,8.01-4.16,12.19-2.42c4.18,1.73,6.91,5.81,6.91,10.34v209.2
			C614.43,414.17,609.42,419.18,603.25,419.18z"/>
		<path class="st0" d="M395.68,571.66c-3.87,0-7.64-2.02-9.71-5.62L300.22,416.8l-111.45,2.37c-6.28,0.18-11.29-4.77-11.42-10.95
			c-0.13-6.18,4.77-11.29,10.95-11.42l118.09-2.51c4.19-0.02,7.9,2.07,9.94,5.61l89.06,155c3.08,5.36,1.23,12.2-4.13,15.27
			C399.49,571.18,397.57,571.66,395.68,571.66z"/>
		<path class="st0" d="M395.68,571.66c-2.68,0-5.34-0.96-7.46-2.84c-3.94-3.52-4.88-9.33-2.25-13.91l207.57-361.68
			c3.07-5.36,9.92-7.21,15.27-4.13c5.36,3.08,7.21,9.91,4.13,15.27l-181.2,315.73l164.87-121.11c4.98-3.66,11.98-2.59,15.64,2.39
			c3.66,4.98,2.59,11.98-2.39,15.64L402.3,569.49C400.32,570.94,397.99,571.66,395.68,571.66z"/>
	</g>
</g>
</svg>
